# xmcd
#
# Track frame offsets: 
#        150
#        21008
#        38547
#        52544
#        71383
#        86471
#        108842
#        124888
#        137112
#        157179
#        186504
#        207061
#        216635
#
# Disc length: 3023 seconds
#
# Revision: 0
# Processed by: cddbd v1.5.2PL0 Copyright (c) Steve Scherf et al.
# Submitted via: ExactAudioCopy v1.0b1
#
DISCID=b10bcd0d
DTITLE=Charlie Schmidt - Xanthe Terra
DYEAR=2005
DGENRE=
TTITLE0=Salem Journeys
TTITLE1=Samba de Xanthe Terra
TTITLE2=Dance of the Inhabitants of the Palace of King Philip XIV of S
TTITLE2=pain
TTITLE3=The Hyattsville Anti-Inertia Dance
TTITLE4=Athabasca Valles Blues
TTITLE5=Firebird
TTITLE6=Kanaranzi Waltz
TTITLE7=Acidalia Planitia
TTITLE8=Chillum Heights Blues
TTITLE9=For Olivia
TTITLE10=Slavic Mountain
TTITLE11=Doggie Blues
TTITLE12=Hymn
EXTD=
EXTT0=
EXTT1=
EXTT2=
EXTT3=
EXTT4=
EXTT5=
EXTT6=
EXTT7=
EXTT8=
EXTT9=
EXTT10=
EXTT11=
EXTT12=
PLAYORDER=
